<svg viewBox="0 0 200 200" xmlns="http://www.w3.org/2000/svg">
  <defs>
    <linearGradient id="backgroundGradient" x1="0%" y1="0%" x2="100%" y2="100%">
      <stop offset="0%" style="stop-color:#1e3a8a;stop-opacity:1" />
      <stop offset="100%" style="stop-color:#3b82f6;stop-opacity:1" />
    </linearGradient>
    <linearGradient id="paperGradient" x1="0%" y1="0%" x2="100%" y2="100%">
      <stop offset="0%" style="stop-color:#ffffff;stop-opacity:1" />
      <stop offset="100%" style="stop-color:#f1f5f9;stop-opacity:1" />
    </linearGradient>
    <linearGradient id="dataGradient" x1="0%" y1="0%" x2="100%" y2="100%">
      <stop offset="0%" style="stop-color:#10b981;stop-opacity:1" />
      <stop offset="100%" style="stop-color:#059669;stop-opacity:1" />
    </linearGradient>
  </defs>
  
  <!-- Background Circle -->
  <circle cx="100" cy="100" r="95" fill="url(#backgroundGradient)" stroke="#1e40af" stroke-width="2"/>
  
  <!-- MongoDB-inspired database cylinders -->
  <g transform="translate(140, 60)">
    <!-- Top cylinder -->
    <ellipse cx="0" cy="0" rx="25" ry="8" fill="url(#dataGradient)"/>
    <rect x="-25" y="0" width="50" height="25" fill="url(#dataGradient)"/>
    <ellipse cx="0" cy="25" rx="25" ry="8" fill="#047857"/>
    
    <!-- Bottom cylinder -->
    <ellipse cx="0" cy="35" rx="25" ry="8" fill="url(#dataGradient)"/>
    <rect x="-25" y="35" width="50" height="20" fill="url(#dataGradient)"/>
    <ellipse cx="0" cy="55" rx="25" ry="8" fill="#047857"/>
  </g>
  
  <!-- Newspaper/Article Stack -->
  <g transform="translate(60, 70)">
    <!-- Back paper -->
    <rect x="5" y="5" width="50" height="65" rx="3" fill="#e2e8f0" stroke="#cbd5e1" stroke-width="1"/>
    
    <!-- Middle paper -->
    <rect x="2" y="2" width="50" height="65" rx="3" fill="#f8fafc" stroke="#e2e8f0" stroke-width="1"/>
    
    <!-- Front paper -->
    <rect x="0" y="0" width="50" height="65" rx="3" fill="url(#paperGradient)" stroke="#cbd5e1" stroke-width="1"/>
    
    <!-- Headline bars -->
    <rect x="5" y="8" width="35" height="4" rx="2" fill="#1e40af"/>
    <rect x="5" y="16" width="25" height="2" rx="1" fill="#64748b"/>
    <rect x="5" y="20" width="30" height="2" rx="1" fill="#64748b"/>
    <rect x="5" y="24" width="20" height="2" rx="1" fill="#64748b"/>
    
    <!-- Article lines -->
    <rect x="5" y="32" width="40" height="1.5" rx="0.5" fill="#94a3b8"/>
    <rect x="5" y="36" width="35" height="1.5" rx="0.5" fill="#94a3b8"/>
    <rect x="5" y="40" width="38" height="1.5" rx="0.5" fill="#94a3b8"/>
    <rect x="5" y="44" width="30" height="1.5" rx="0.5" fill="#94a3b8"/>
    <rect x="5" y="48" width="36" height="1.5" rx="0.5" fill="#94a3b8"/>
    <rect x="5" y="52" width="25" height="1.5" rx="0.5" fill="#94a3b8"/>
  </g>
  
  <!-- Web/API Connection Arrows -->
  <g stroke="#fbbf24" stroke-width="3" fill="none" marker-end="url(#arrowhead)">
    <defs>
      <marker id="arrowhead" markerWidth="10" markerHeight="7" 
              refX="10" refY="3.5" orient="auto">
        <polygon points="0 0, 10 3.5, 0 7" fill="#fbbf24"/>
      </marker>
    </defs>
    
    <!-- Arrow from web to news -->
    <path d="M 30 100 Q 50 80 75 100" stroke-dasharray="5,3"/>
    
    <!-- Arrow from news to database -->
    <path d="M 110 100 Q 125 90 140 100" stroke-dasharray="5,3"/>
  </g>
  
  <!-- Web/Globe icon -->
  <g transform="translate(30, 100)">
    <circle cx="0" cy="0" r="18" fill="none" stroke="#ffffff" stroke-width="2"/>
    <path d="M -18 0 Q -9 -15 0 0 Q 9 15 18 0" fill="none" stroke="#ffffff" stroke-width="1.5"/>
    <path d="M -18 0 Q -9 15 0 0 Q 9 -15 18 0" fill="none" stroke="#ffffff" stroke-width="1.5"/>
    <line x1="-18" y1="0" x2="18" y2="0" stroke="#ffffff" stroke-width="1.5"/>
    <circle cx="0" cy="0" r="3" fill="#fbbf24"/>
  </g>
  
  <!-- RSS/Feed icon elements -->
  <g transform="translate(25, 140)">
    <circle cx="0" cy="0" r="4" fill="#f97316"/>
    <path d="M -12 12 Q -12 -12 12 -12" fill="none" stroke="#f97316" stroke-width="3"/>
    <path d="M -18 18 Q -18 -18 18 -18" fill="none" stroke="#f97316" stroke-width="2"/>
  </g>
  
  <!-- Title Text -->
  <text x="100" y="180" text-anchor="middle" font-family="Arial, sans-serif" font-size="14" font-weight="bold" fill="#1e40af">NEWS AGGREGATOR</text>
</svg>